<svg xmlns="http://www.w3.org/2000/svg" style="display: none;">

  <symbol id="icon-instagram" viewBox="0 0 24 24">
    <path d="M12 2.163c3.204 0 3.584.012 4.85.07 3.252.148 4.771 1.691 4.919 4.919.058 1.265.069 1.645.069 4.85s-.011 3.585-.069 4.85c-.149 3.225-1.664 4.771-4.919 4.919-1.266.058-1.644.07-4.85.07s-3.585-.012-4.85-.07c-3.252-.148-4.771-1.691-4.919-4.919-.058-1.265-.069-1.645-.069-4.85s.011-3.585.069-4.85c.149-3.225 1.664-4.771 4.919-4.919C8.415 2.175 8.796 2.163 12 2.163zm0 1.442c-3.171 0-3.53.011-4.77.068-2.693.122-3.957 1.39-4.08 4.08-.057 1.238-.068 1.597-.068 4.77s.011 3.53.068 4.77c.123 2.693 1.387 3.957 4.08 4.08 1.238.057 1.597.068 4.77.068s3.53-.011 4.77-.068c2.693-.123 3.957-1.387 4.08-4.08 1.238-.057 1.597-.068 4.77-.068s3.53.011 4.77.068c.057-1.238.068-1.597.068-4.77s-.011-3.53-.068-4.77c-.123-2.693-1.387-3.957-4.08-4.08-1.238-.057-1.597-.068-4.77-.068zm0 5.838a4.555 4.555 0 1 0 0 9.11 4.555 4.555 0 0 0 0-9.11zm0 7.426a2.871 2.871 0 1 1 0-5.742 2.871 2.871 0 0 1 0 5.742zM16.95 6.312a1.238 1.238 0 1 0 0 2.475 1.238 1.238 0 0 0 0-2.475z"/>
  </symbol>
  <symbol id="icon-x" viewBox="0 0 24 24">
    <path d="M18.244 2.25h3.308l-7.227 8.26 8.502 11.24H16.17l-5.214-6.817L4.99 21.75H1.68l7.73-8.835L1.254 2.25H8.08l4.713 6.231zm-1.161 17.52h1.833L7.084 4.126H5.117z"/>
  </symbol>
  <symbol id="icon-youtube" viewBox="0 0 24 24">
    <path d="M19.615 3.184c-3.604-.246-11.631-.245-15.23 0-3.897.266-4.356 2.62-4.385 8.816.029 6.185.484 8.549 4.385 8.816 3.6.245 11.626.246 15.23 0 3.897-.266 4.356-2.62 4.385-8.816-.029-6.185-.484-8.549-4.385-8.816zM9.715 15.222V8.778l6.158 3.223-6.158 3.221z"/>
  </symbol>
  <symbol id="icon-google" viewBox="0 0 18 19">
    <path fill-rule="evenodd" d="M8.842 18.083a8.8 8.8 0 0 1-8.65-8.948 8.841 8.841 0 0 1 8.8-8.652h.153a8.464 8.464 0 0 1 5.7 2.257l-2.193 2.038A5.27 5.27 0 0 0 9.09 3.4a5.882 5.882 0 0 0-.2 11.76h.124a5.091 5.091 0 0 0 5.248-4.057L14.3 11H9V8h8.34c.066.543.095 1.09.088 1.636-.086 5.053-3.463 8.449-8.4 8.449l-.186-.002Z" clip-rule="evenodd"/>
  </symbol>
  <symbol id="icon-telegram" viewBox="0 0 24 24">
    <path d="M15.3,10.16_L15.3,10.16_L15.3,10.16_11.08,13.62_10.94,15.19_10.93,15.2_10.59,19.3_10.59,19.3_10.58,19.3_10.58,19.3_10.23,19.3_9.99,16.51_9.98,16.51_9.98,16.51_13.31,13.43_8.32,16.14_8.32,16.14_7.98,16.29_7.6,18.06_7.23,16.34_7.23,16.34_7.23,16.34_2.4,14.65_2.4,14.65_2.4,14.65_2,14.5_2,13.88_3.46,13.3_20.18,6.08_21.09,5.59_21.5,5.5_21.75,5.75_21.68,6.29_21.68,6.29_21.68,6.29_17.65,22.39_17.43,23.3_16.5,23.5_15.82,23.26_15.82,23.26_15.82,23.26_11.83,20.47_11.83,20.47_11.83,20.47_15.3,10.16_Z_M10.93,15.2_L10.93,15.2_10.93,15.2_10.93,15.2_Z" style="stroke:none;fill-rule:nonzero;"/>
  </symbol>
  <symbol id="icon-success-check" viewBox="0 0 20 20">
    <path fill-rule="evenodd" d="M10 18a8 8 0 100-16 8 8 0 000 16zm3.707-9.293a1 1 0 00-1.414-1.414L9 10.586 7.707 9.293a1 1 0 00-1.414 1.414l2 2a1 1 0 001.414 0l4-4z" clip-rule="evenodd"></path>
  </symbol>

  <symbol id="icon-user" viewBox="0 0 20 20">
    <path d="M10 0a10 10 0 1 0 10 10A10.011 10.011 0 0 0 10 0Zm0 5a3 3 0 1 1 0 6 3 3 0 0 1 0-6Zm0 13a8.949 8.949 0 0 1-4.951-1.488A3.987 3.987 0 0 1 9 13h2a3.987 3.987 0 0 1 3.951 3.512A8.949 8.949 0 0 1 10 18Z"/>
  </symbol>
  <symbol id="icon-roll-number" viewBox="0 0 24 24">
    <path d="M12.4472 4.10557c-.2815-.14076-.6129-.14076-.8944 0L2.76981 8.49706l9.21949 4.39024L21 8.38195l-8.5528-4.27638Z"/><path d="M5 17.2222v-5.448l6.5701 3.1286c.278.1325.6016.1293.8771-.0084L19 11.618v5.6042c0 .2857-.1229.5583-.3364.7481l-.0025.0022-.0041.0036-.0103.009-.0119.0101-.0181.0152c-.024.02-.0562.0462-.0965.0776-.0807.0627-.1942.1465-.3405.2441-.2926.195-.7171.4455-1.2736.6928C15.7905 19.5208 14.1527 20 12 20c-2.15265 0-3.79045-.4792-4.90614-.9751-.5565-.2473-.98098-.4978-1.27356-.6928-.14631-.0976-.2598-.1814-.34049-.2441-.04036-.0314-.07254-.0576-.09656-.0776-.01201-.01-.02198-.0185-.02991-.0253l-.01038-.009-.00404-.0036-.00174-.0015-.0008-.0007s-.00004 0 .00978-.0112l-.00009-.0012-.01043.0117C5.12215 17.7799 5 17.5079 5 17.2222Zm-3-6.8765 2 .9523V17c0 .5523-.44772 1-1 1s-1-.4477-1-1v-6.6543Z"/>
  </symbol>
  <symbol id="icon-email" viewBox="0 0 20 16">
    <path d="m10.036 8.278 9.258-7.79A1.979 1.979 0 0 0 18 0H2A1.987 1.987 0 0 0 .641.541l9.395 7.737Z"/><path d="M11.241 9.817c-.36.275-.801.425-1.255.427-.428 0-.845-.138-1.187-.395L0 2.6V14a2 2 0 0 0 2 2h16a2 2 0 0 0 2-2V2.5l-8.759 7.317Z"/>
  </symbol>
  <symbol id="icon-phone" viewBox="0 0 19 18">
    <path d="M18 13.446a3.02 3.02 0 0 0-.946-1.985l-1.4-1.4a3.054 3.054 0 0 0-4.218 0l-.7.7a.983.983 0 0 1-1.39 0l-2.1-2.1a.983.983 0 0 1 0-1.389l.7-.7a2.98 2.98 0 0 0 0-4.217l-1.4-1.4a2.824 2.824 0 0 0-4.218 0c-3.619 3.619-3 8.229 1.752 12.979C6.785 16.639 9.45 18 11.912 18a7.175 7.175 0 0 0 5.139-2.325A2.9 2.9 0 0 0 18 13.446Z"/>
  </symbol>
  <symbol id="icon-whatsapp" viewBox="0 0 24 24">
    <path fill-rule="evenodd" d="M12 4a8 8 0 0 0-6.895 12.06l.569.718-.697 2.359 2.32-.648.379.243A8 8 0 1 0 12 4ZM2 12C2 6.477 6.477 2 12 2s10 4.477 10 10-4.477 10-10 10a9.96 9.96 0 0 1-5.016-1.347l-4.948 1.382 1.426-4.829-.006-.007-.033-.055A9.958 9.958 0 0 1 2 12Z" clip-rule="evenodd"/><path d="M16.735 13.492c-.038-.018-1.497-.736-1.756-.83a1.008 1.008 0 0 0-.34-.075c-.196 0-.362.098-.49.291-.146.217-.587.732-.723.886-.018.02-.042.045-.057.045-.013 0-.239-.093-.307-.123-1.564-.68-2.751-2.313-2.914-2.589-.023-.04-.024-.057-.024-.057.005-.021.058-.074.085-.101.08-.079.166-.182.249-.283l.117-.14c.121-.14.175-.25.237-.375l.033-.066a.68.68 0 0 0-.02-.64c-.034-.069-.65-1.555-.715-1.711-.158-.377-.366-.552-.655-.552-.027 0 0 0-.112.005-.137.005-.883.104-1.213.311-.35.22-.94.924-.94 2.16 0 1.112.705 2.162 1.008 2.561l.041.06c1.161 1.695 2.608 2.951 4.074 3.537 1.412.564 2.081.63 2.461.63.16 0 .288-.013.4-.024l.072-.007c.488-.043 1.56-.599 1.804-1.276.192-.534.243-1.117.115-1.329-.088-.144-.239-.216-.43-.308Z"/>
  </symbol>
  <symbol id="icon-hostel" viewBox="0 0 24 24">
    <path fill-rule="evenodd" d="M4 4a1 1 0 0 1 1-1h14a1 1 0 1 1 0 2v14a1 1 0 1 1 0 2H5a1 1 0 1 1 0-2V5a1 1 0 0 1-1-1Zm5 2a1 1 0 0 0-1 1v1a1 1 0 0 0 1 1h1a1 1 0 0 0 1-1V7a1 1 0 0 0-1-1H9Zm5 0a1 1 0 0 0-1 1v1a1 1 0 0 0 1 1h1a1 1 0 0 0 1-1V7a1 1 0 0 0-1-1h-1Zm-5 4a1 1 0 0 0-1 1v1a1 1 0 0 0 1 1h1a1 1 0 0 0 1-1v-1a1 1 0 0 0-1-1H9Zm5 0a1 1 0 0 0-1 1v1a1 1 0 0 0 1 1h1a1 1 0 0 0 1-1v-1a1 1 0 0 0-1-1h-1Zm-3 4a2 2 0 0 0-2 2v3h2v-3h2v3h2v-3a2 2 0 0 0-2-2h-2Z" clip-rule="evenodd"/>
  </symbol> 
</svg>